<?xml version="1.0" encoding="utf-8"?>
<!-- Svg Vector Icons : http://www.onlinewebfonts.com/icon -->
<!DOCTYPE svg PUBLIC "-//W3C//DTD SVG 1.1//EN" "http://www.w3.org/Graphics/SVG/1.1/DTD/svg11.dtd">
<svg version="1.1" xmlns="http://www.w3.org/2000/svg" xmlns:xlink="http://www.w3.org/1999/xlink" x="0px" y="0px" viewBox="0 0 1000 1000" enable-background="new 0 0 1000 1000" xml:space="preserve">
<metadata> Svg Vector Icons : http://www.onlinewebfonts.com/icon </metadata>
<g><path d="M916.5,456.7c73.5-67.4,91.9-171.5,55.1-251.1L843,328.1c-36.8,30.6-98,30.6-128.6,0c-36.8-30.6-36.8-91.9,0-122.5L843,83.1C751.1,40.2,640.9,58.6,567.4,126s-91.9,171.5-55.1,251.1l-85.8,85.8L193.8,248.5l18.4-30.6L89.6,144.4L10,211.7l79.6,116.4l36.8-18.4l232.8,214.4L89.6,775.2c-18.4,18.4-18.4,42.9,0,55.1l79.6,79.6c18.4,18.4,42.9,18.4,61.3,0L500,658.9l36.8,36.8l-12.3,12.3c-18.4,12.2-18.4,30.6-6.1,49l183.8,171.5c12.3,12.3,42.9,18.4,55.1,0l85.8-79.6c18.4-12.3,12.3-42.9,0-55.1L659.3,622.1c-12.3-12.3-36.8-6.1-55.1,6.1l-6.1,6.1l-30.6-36.8l98-91.9C751.1,536.4,849.1,518,916.5,456.7z M230.5,824.2c-18.4,18.4-49,18.4-67.4,0s-18.4-42.9,0-61.3s49-18.4,67.4,0S248.9,805.9,230.5,824.2z"/></g>
</svg>