<?xml version="1.0"?>
<svg xmlns="http://www.w3.org/2000/svg" viewBox="0 0 24 24">
    <path d="M 18.9375 2 C 14.9375 2 12 2.279 12 5.5 C 12 6.055 12.08375 6.75525 12.21875 7.40625 C 12.88075 7.79425 13.612 8.21575 14.25 8.59375 C 14.773 8.90475 15.14525 9.408 15.28125 10 C 15.39125 10.479 15.325 10.9935 15.125 11.4375 C 15.974 11.5475 17.4155 12 18.4375 12 C 21.7925 12 21.9375 9.062 21.9375 5 L 18.9375 8 C 18.9375 8 17.9275 7.98 16.9375 7 C 15.9575 6.01 15.9375 5 15.9375 5 L 18.9375 2 z M 9.0625 7 C 8.75925 7.043875 8.40475 7.2445 7.96875 7.625 C 6.89375 8.564 6 9 6 9 C 6 9 5.5495 9.21025 5.1875 9.15625 C 4.4305 9.04525 2 8 2 8 L 2 15 C 2 15 3.01425 15.24625 3.28125 15.28125 C 3.54825 15.31525 4.393 15.604 5 15 C 5.934 14.07 9.53125 10.78125 9.53125 10.78125 C 9.53125 10.78125 10.11125 10.21475 11.03125 10.71875 L 12.46875 11.5625 C 13.03575 11.8975 13.762 11.7375 14.125 11.1875 C 14.513 10.5985 14.32475 9.7975 13.71875 9.4375 C 12.50075 8.7145 10.6325 7.633 9.9375 7.25 C 9.6195 7.075 9.36575 6.956125 9.0625 7 z M 10.34375 11.5 C 9.20675 12.543 5.34625 15.99475 5.15625 16.09375 C 3.89825 17.18275 2.9775 17.96 2.9375 18 C 1.6245 19.313 1.80625 20.43125 2.65625 21.28125 C 3.50625 22.13125 4.5155 22.422 5.9375 21 C 5.9755 20.962 6.67425 20.16725 7.65625 19.03125 C 7.03225 18.24725 7.05625 17.1 7.78125 16.375 L 7.875 16.28125 C 8.042 16.11425 8.2345 16.00225 8.4375 15.90625 C 8.4635 15.43125 8.66925 14.95575 9.03125 14.59375 L 9.09375 14.5 C 9.25075 14.343 9.436 14.25025 9.625 14.15625 C 9.639 13.66325 9.84275 13.15625 10.21875 12.78125 L 10.28125 12.71875 C 10.61225 12.38775 11.03675 12.20525 11.46875 12.15625 L 10.5 11.5625 C 10.437 11.5285 10.39775 11.508 10.34375 11.5 z M 13.59375 12 C 13.3375 12 13.0695 12.08675 12.875 12.28125 L 12.78125 12.375 C 12.39225 12.764 12.39225 13.39225 12.78125 13.78125 L 12.40625 13.40625 C 12.01725 13.01725 11.389 13.01725 11 13.40625 L 10.90625 13.5 C 10.51725 13.889 10.51725 14.51725 10.90625 14.90625 L 11.21875 15.21875 C 10.82975 14.82975 10.2015 14.82975 9.8125 15.21875 L 9.71875 15.3125 C 9.32975 15.7015 9.32975 16.32975 9.71875 16.71875 L 10 17 C 9.611 16.611 8.98275 16.611 8.59375 17 L 8.5 17.09375 C 8.111 17.48275 8.111 18.111 8.5 18.5 L 9.78125 19.78125 C 10.17025 20.17025 10.82975 20.17025 11.21875 19.78125 L 11.28125 19.71875 C 11.67025 19.32975 11.67025 18.67025 11.28125 18.28125 C 11.67025 18.67025 12.32975 18.67025 12.71875 18.28125 L 12.78125 18.21875 C 13.17025 17.82975 13.17025 17.17025 12.78125 16.78125 L 12.90625 16.90625 C 13.29525 17.29525 13.9235 17.29525 14.3125 16.90625 L 14.40625 16.8125 C 14.79525 16.4235 14.79525 15.79525 14.40625 15.40625 L 14.21875 15.21875 C 14.60775 15.60775 15.236 15.60775 15.625 15.21875 L 15.71875 15.125 C 16.10775 14.736 16.10775 14.10775 15.71875 13.71875 L 14.28125 12.28125 C 14.08675 12.08675 13.85 12 13.59375 12 z M 4.4375 18.75 C 4.8515 18.75 5.1875 19.086 5.1875 19.5 C 5.1875 19.914 4.8515 20.25 4.4375 20.25 C 4.0235 20.25 3.6875 19.914 3.6875 19.5 C 3.6875 19.086 4.0235 18.75 4.4375 18.75 z"/>
</svg>
